<?xml version="1.0" standalone="no"?>
<!DOCTYPE svg PUBLIC "-//W3C//DTD SVG 1.1//EN" "http://www.w3.org/Graphics/SVG/1.1/DTD/svg11.dtd" >
<svg xmlns="http://www.w3.org/2000/svg" xmlns:xlink="http://www.w3.org/1999/xlink" version="1.1">
<metadata>
Created by FontForge 20170731 at Fri Oct  8 05:43:33 2021
 By Aleksey,,,
</metadata>
<defs>
<font id="GameOfSquids" horiz-adv-x="768" >
  <font-face 
    font-family="Game Of Squids"
    font-weight="400"
    font-stretch="normal"
    units-per-em="1024"
    panose-1="0 0 4 0 0 0 0 0 0 0"
    ascent="819"
    descent="-205"
    x-height="640"
    cap-height="640"
    bbox="0 -320 1088 960"
    underline-thickness="51"
    underline-position="26"
    unicode-range="U+0020-20AC"
  />
<missing-glyph horiz-adv-x="320" 
 />
    <glyph glyph-name=".notdef" horiz-adv-x="320" 
 />
    <glyph glyph-name=".null" horiz-adv-x="0" 
 />
    <glyph glyph-name="nonmarkingreturn" horiz-adv-x="64" 
 />
    <glyph glyph-name="space" unicode=" " horiz-adv-x="512" 
 />
    <glyph glyph-name="exclam" unicode="!" horiz-adv-x="288" 
d="M144 0q-33 0 -56.5 23.5t-23.5 56.5t23.5 56.5t56.5 23.5t56.5 -23.5t23.5 -56.5t-23.5 -56.5t-56.5 -23.5zM208 256h-128v384h128v-384z" />
    <glyph glyph-name="quotedbl" unicode="&#x22;" horiz-adv-x="512" 
d="M192 512h-128v256h128v-256zM448 512h-128v256h128v-256z" />
    <glyph glyph-name="numbersign" unicode="#" 
d="M320 512h128v128h128v-128h128v-128h-128v-128h128v-128h-128v-128h-128v128h-128v-128h-128v128h-128v128h128v128h-128v128h128v128h128v-128zM448 384h-128v-128h128v128z" />
    <glyph glyph-name="dollar" unicode="$" horiz-adv-x="1088" 
d="M576 640v128h128v-128h256v-128h-384q-27 0 -45.5 -18.5t-18.5 -45.5t18.5 -45.5t45.5 -18.5h256q80 0 136 -56t56 -136t-56 -136t-136 -56h-128v-128h-128v128h-512v128h768q27 0 45.5 18.5t18.5 45.5t-18.5 45.5t-45.5 18.5h-256q-80 0 -136 56t-56 136t56 136t136 56z
" />
    <glyph glyph-name="percent" unicode="%" horiz-adv-x="640" 
d="M547 640l-355 -640h-128l355 640h128zM496 0q-33 0 -56.5 23.5t-23.5 56.5t23.5 56.5t56.5 23.5t56.5 -23.5t23.5 -56.5t-23.5 -56.5t-56.5 -23.5zM144 480q-33 0 -56.5 23.5t-23.5 56.5t23.5 56.5t56.5 23.5t56.5 -23.5t23.5 -56.5t-23.5 -56.5t-56.5 -23.5z" />
    <glyph glyph-name="ampersand" unicode="&#x26;" horiz-adv-x="960" 
d="M512 384q27 0 45.5 18.5t18.5 45.5t-18.5 45.5t-45.5 18.5h-256q-27 0 -45.5 -18.5t-18.5 -45.5t18.5 -45.5t45.5 -18.5h256zM694 256q10 -30 10 -64q0 -80 -56 -136t-136 -56h-256q-80 0 -136 56t-56 136q0 74 48 128q-48 54 -48 128q0 80 56 136t136 56h256
q80 0 136 -56t56 -136q0 -34 -10 -64h202v-128h-202zM512 256h-256q-27 0 -45.5 -18.5t-18.5 -45.5t18.5 -45.5t45.5 -18.5h256q27 0 45.5 18.5t18.5 45.5t-18.5 45.5t-45.5 18.5z" />
    <glyph glyph-name="quotesingle" unicode="'" horiz-adv-x="256" 
d="M192 512h-128v256h128v-256z" />
    <glyph glyph-name="parenleft" unicode="(" horiz-adv-x="384" 
d="M64 768h256v-128h-128v-640h128v-128h-256v896z" />
    <glyph glyph-name="parenright" unicode=")" horiz-adv-x="384" 
d="M192 640h-128v128h256v-896h-256v128h128v640z" />
    <glyph glyph-name="asterisk" unicode="*" horiz-adv-x="518" 
d="M323 456v-72h-128v72l-59 -40l-72 106l80 54l-80 54l72 106l59 -40v72h128v-72l59 40l72 -106l-80 -54l80 -54l-72 -106z" />
    <glyph glyph-name="plus" unicode="+" 
d="M448 384h256v-128h-256v-256h-128v256h-256v128h256v256h128v-256z" />
    <glyph glyph-name="comma" unicode="," horiz-adv-x="272" 
d="M192 -64h-128l16 256h128z" />
    <glyph glyph-name="hyphen" unicode="-" 
d="M704 256h-640v128h640v-128z" />
    <glyph glyph-name="period" unicode="." horiz-adv-x="288" 
d="M144 0q-33 0 -56.5 23.5t-23.5 56.5t23.5 56.5t56.5 23.5t56.5 -23.5t23.5 -56.5t-23.5 -56.5t-56.5 -23.5z" />
    <glyph glyph-name="slash" unicode="/" horiz-adv-x="611" 
d="M547 640l-355 -640h-128l355 640h128z" />
    <glyph glyph-name="zero" unicode="0" 
d="M384 0q-133 0 -226.5 93.5t-93.5 226.5t93.5 226.5t226.5 93.5t226.5 -93.5t93.5 -226.5t-93.5 -226.5t-226.5 -93.5zM384 128q80 0 136 56t56 136t-56 136t-136 56t-136 -56t-56 -136t56 -136t136 -56z" />
    <glyph glyph-name="one" unicode="1" horiz-adv-x="256" 
d="M192 0h-128v640h128v-640z" />
    <glyph glyph-name="two" unicode="2" horiz-adv-x="1088" 
d="M1024 128v-128h-960v192q0 80 56 136t136 56h256q27 0 45.5 18.5t18.5 45.5t-18.5 45.5t-45.5 18.5h-384v128h384q80 0 136 -56t56 -136t-56 -136t-136 -56h-256q-27 0 -45.5 -18.5t-18.5 -45.5v-64h832z" />
    <glyph glyph-name="three" unicode="3" 
d="M512 0h-448v128h448q27 0 45.5 18.5t18.5 45.5t-18.5 45.5t-45.5 18.5h-160v128h160q27 0 45.5 18.5t18.5 45.5t-18.5 45.5t-45.5 18.5h-448v128h448q80 0 136 -56t56 -136q0 -74 -48 -128q48 -54 48 -128q0 -80 -56 -136t-136 -56z" />
    <glyph glyph-name="four" unicode="4" 
d="M64 256v384h128v-256h384v256h128v-640h-128v256h-512z" />
    <glyph glyph-name="five" unicode="5" horiz-adv-x="1088" 
d="M1024 640v-128h-832v-64q0 -27 18.5 -45.5t45.5 -18.5h256q80 0 136 -56t56 -136t-56 -136t-136 -56h-384v128h384q27 0 45.5 18.5t18.5 45.5t-18.5 45.5t-45.5 18.5h-256q-80 0 -136 56t-56 136v192h960z" />
    <glyph glyph-name="six" unicode="6" 
d="M192 256v-64q0 -27 18.5 -45.5t45.5 -18.5h256q27 0 45.5 18.5t18.5 45.5t-18.5 45.5t-45.5 18.5h-320zM64 448q0 80 56 136t136 56h384v-128h-384q-27 0 -45.5 -18.5t-18.5 -45.5v-64h320q80 0 136 -56t56 -136t-56 -136t-136 -56h-256q-80 0 -136 56t-56 136v256z" />
    <glyph glyph-name="seven" unicode="7" 
d="M506 512h-442v128h640l-352 -640h-128z" />
    <glyph glyph-name="eight" unicode="8" 
d="M512 256h-256q-27 0 -45.5 -18.5t-18.5 -45.5t18.5 -45.5t45.5 -18.5h256q27 0 45.5 18.5t18.5 45.5t-18.5 45.5t-45.5 18.5zM512 384q27 0 45.5 18.5t18.5 45.5t-18.5 45.5t-45.5 18.5h-256q-27 0 -45.5 -18.5t-18.5 -45.5t18.5 -45.5t45.5 -18.5h256zM656 320
q48 -54 48 -128q0 -80 -56 -136t-136 -56h-256q-80 0 -136 56t-56 136q0 74 48 128q-48 54 -48 128q0 80 56 136t136 56h256q80 0 136 -56t56 -136q0 -74 -48 -128z" />
    <glyph glyph-name="nine" unicode="9" 
d="M576 384v64q0 27 -18.5 45.5t-45.5 18.5h-256q-27 0 -45.5 -18.5t-18.5 -45.5t18.5 -45.5t45.5 -18.5h320zM704 192q0 -80 -56 -136t-136 -56h-384v128h384q27 0 45.5 18.5t18.5 45.5v64h-320q-80 0 -136 56t-56 136t56 136t136 56h256q80 0 136 -56t56 -136v-256z" />
    <glyph glyph-name="colon" unicode=":" horiz-adv-x="288" 
d="M144 0q-33 0 -56.5 23.5t-23.5 56.5t23.5 56.5t56.5 23.5t56.5 -23.5t23.5 -56.5t-23.5 -56.5t-56.5 -23.5zM144 352q-33 0 -56.5 23.5t-23.5 56.5t23.5 56.5t56.5 23.5t56.5 -23.5t23.5 -56.5t-23.5 -56.5t-56.5 -23.5z" />
    <glyph glyph-name="semicolon" unicode=";" horiz-adv-x="288" 
d="M144 352q-33 0 -56.5 23.5t-23.5 56.5t23.5 56.5t56.5 23.5t56.5 -23.5t23.5 -56.5t-23.5 -56.5t-56.5 -23.5zM192 -64h-128l16 256h128z" />
    <glyph glyph-name="less" unicode="&#x3c;" horiz-adv-x="800" 
d="M736 0l-672 320l672 320v-144l-368 -176l368 -176v-144z" />
    <glyph glyph-name="equal" unicode="=" 
d="M704 384h-640v128h640v-128zM704 128h-640v128h640v-128z" />
    <glyph glyph-name="greater" unicode="&#x3e;" horiz-adv-x="800" 
d="M64 0v144l368 176l-368 176v144l672 -320z" />
    <glyph glyph-name="question" unicode="?" horiz-adv-x="704" 
d="M320 0q-33 0 -56.5 23.5t-23.5 56.5t23.5 56.5t56.5 23.5t56.5 -23.5t23.5 -56.5t-23.5 -56.5t-56.5 -23.5zM448 512h-384v128h384q80 0 136 -56t56 -136t-56 -136t-136 -56h-64v-32h-128v160h192q27 0 45.5 18.5t18.5 45.5t-18.5 45.5t-45.5 18.5z" />
    <glyph glyph-name="at" unicode="@" horiz-adv-x="1024" 
d="M384 128h576v-128h-576q-133 0 -226.5 93.5t-93.5 226.5t93.5 226.5t226.5 93.5t227 -93q70 -71 93 -163v-128h-384v128h246q-14 40 -46 72q-56 56 -136 56t-136 -56t-56 -136t56 -136t136 -56z" />
    <glyph glyph-name="A" unicode="A" 
d="M64 0l320 672l320 -672h-144l-176 368l-176 -368h-144z" />
    <glyph glyph-name="B" unicode="B" 
d="M512 0h-448v640h448q80 0 136 -56t56 -136q0 -74 -48 -128q48 -54 48 -128q0 -80 -56 -136t-136 -56zM192 128h320q27 0 45.5 18.5t18.5 45.5t-18.5 45.5t-45.5 18.5h-160v128h160q27 0 45.5 18.5t18.5 45.5t-18.5 45.5t-45.5 18.5h-320v-384z" />
    <glyph glyph-name="C" unicode="C" 
d="M384 128h320v-128h-320q-133 0 -226.5 93.5t-93.5 226.5t93.5 226.5t226.5 93.5h320v-128h-320q-80 0 -136 -56t-56 -136t56 -136t136 -56z" />
    <glyph glyph-name="D" unicode="D" horiz-adv-x="896" 
d="M512 0h-448v640h448q133 0 226.5 -93.5t93.5 -226.5t-93.5 -226.5t-226.5 -93.5zM192 128h320q80 0 136 56t56 136t-56 136t-136 56h-320v-384z" />
    <glyph glyph-name="E" unicode="E" 
d="M704 256h-352v128h352v-128zM704 640v-128h-512v-384h512v-128h-640v640h640z" />
    <glyph glyph-name="F" unicode="F" 
d="M704 256h-352v128h352v-128zM704 640v-128h-512v-512h-128v640h640z" />
    <glyph glyph-name="G" unicode="G" horiz-adv-x="1047" 
d="M853 -128l-71 128h-398q-133 0 -226.5 93.5t-93.5 226.5t93.5 226.5t226.5 93.5h512l-64 -128h-448q-80 0 -136 -56t-56 -136t56 -136t136 -56h327l-71 128h-256v128h320l279 -512h-130z" />
    <glyph glyph-name="H" unicode="H" 
d="M192 256v-256h-128v640h128v-256h384v256h128v-640h-128v256h-384z" />
    <glyph glyph-name="I" unicode="I" horiz-adv-x="256" 
d="M192 0h-128v640h128v-640z" />
    <glyph glyph-name="J" unicode="J" horiz-adv-x="512" 
d="M320 640h128v-640q0 -80 -56 -136t-136 -56t-136 56t-56 136h128q0 -27 18.5 -45.5t45.5 -18.5t45.5 18.5t18.5 45.5v640z" />
    <glyph glyph-name="K" unicode="K" 
d="M192 229v-229h-128v640h128v-229l320 229h192l-448 -320l448 -320h-192z" />
    <glyph glyph-name="L" unicode="L" 
d="M192 128h512v-128h-640v640h128v-512z" />
    <glyph glyph-name="M" unicode="M" horiz-adv-x="896" 
d="M192 384v-384h-128v640h128l256 -480l256 480h128v-640h-128v384l-192 -384h-128z" />
    <glyph glyph-name="N" unicode="N" 
d="M192 448v-448h-128v640h128l384 -448v448h128v-640h-128z" />
    <glyph glyph-name="O" unicode="O" 
d="M384 0q-133 0 -226.5 93.5t-93.5 226.5t93.5 226.5t226.5 93.5t226.5 -93.5t93.5 -226.5t-93.5 -226.5t-226.5 -93.5zM384 128q80 0 136 56t56 136t-56 136t-136 56t-136 -56t-56 -136t56 -136t136 -56z" />
    <glyph glyph-name="P" unicode="P" 
d="M192 0h-128v640h448q80 0 136 -56t56 -136t-56 -136t-136 -56h-160v128h160q27 0 45.5 18.5t18.5 45.5t-18.5 45.5t-45.5 18.5h-320v-512z" />
    <glyph glyph-name="Q" unicode="Q" 
d="M425 132l-105 188h128l74 -134q54 56 54 134q0 80 -56 136t-136 56t-136 -56t-56 -136t56 -136t136 -56q21 0 41 4zM569 -128l-80 144q-49 -16 -105 -16q-133 0 -226.5 93.5t-93.5 226.5t93.5 226.5t226.5 93.5t226.5 -93.5t93.5 -226.5t-93 -226q-12 -12 -25 -23
l111 -199h-128z" />
    <glyph glyph-name="R" unicode="R" 
d="M499 0l-211 384h224q27 0 45.5 18.5t18.5 45.5t-18.5 45.5t-45.5 18.5h-320v-512h-128v640h448q80 0 136 -56t56 -136t-56 -136t-136 -56h-28l142 -256h-127z" />
    <glyph glyph-name="S" unicode="S" horiz-adv-x="1088" 
d="M832 0h-768v128h768q27 0 45.5 18.5t18.5 45.5t-18.5 45.5t-45.5 18.5h-256q-80 0 -136 56t-56 136t56 136t136 56h384v-128h-384q-27 0 -45.5 -18.5t-18.5 -45.5t18.5 -45.5t45.5 -18.5h256q80 0 136 -56t56 -136t-56 -136t-136 -56z" />
    <glyph glyph-name="T" unicode="T" 
d="M448 512v-512h-128v512h-256v128h640v-128h-256z" />
    <glyph glyph-name="U" unicode="U" 
d="M64 320v320h128v-320q0 -80 56 -136t136 -56t136 56t56 136v320h128v-320q0 -133 -93.5 -226.5t-226.5 -93.5t-226.5 93.5t-93.5 226.5z" />
    <glyph glyph-name="V" unicode="V" 
d="M64 640h144l176 -368l176 368h144l-320 -672z" />
    <glyph glyph-name="W" unicode="W" horiz-adv-x="1152" 
d="M576 371l-192 -403l-320 672h144l176 -368l120 251l72 149l72 -149l120 -251l176 368h144l-320 -672z" />
    <glyph glyph-name="X" unicode="X" 
d="M304 320l-240 320h160l160 -213l160 213h160l-240 -320l240 -320h-160l-160 213l-160 -213h-160z" />
    <glyph glyph-name="Y" unicode="Y" 
d="M320 300l-256 340h160l160 -213l160 213h160l-256 -339v-301h-128v300z" />
    <glyph glyph-name="Z" unicode="Z" horiz-adv-x="672" 
d="M346 512h-282v128h480l-282 -512h346v-128h-544z" />
    <glyph glyph-name="bracketleft" unicode="[" horiz-adv-x="384" 
d="M64 768h256v-128h-128v-640h128v-128h-256v896z" />
    <glyph glyph-name="backslash" unicode="\" horiz-adv-x="611" 
d="M64 640h128l355 -640h-128z" />
    <glyph glyph-name="bracketright" unicode="]" horiz-adv-x="384" 
d="M192 640h-128v128h256v-896h-256v128h128v640z" />
    <glyph glyph-name="asciicircum" unicode="^" horiz-adv-x="512" 
d="M320 896l128 -256h-128l-64 128l-64 -128h-128l128 256h128z" />
    <glyph glyph-name="underscore" unicode="_" 
d="M704 -192h-640v128h640v-128z" />
    <glyph glyph-name="grave" unicode="`" horiz-adv-x="384" 
d="M320 640h-128l-128 256h128z" />
    <glyph glyph-name="a" unicode="a" 
d="M64 0l320 672l320 -672h-144l-176 368l-176 -368h-144z" />
    <glyph glyph-name="b" unicode="b" 
d="M512 0h-448v640h448q80 0 136 -56t56 -136q0 -74 -48 -128q48 -54 48 -128q0 -80 -56 -136t-136 -56zM192 128h320q27 0 45.5 18.5t18.5 45.5t-18.5 45.5t-45.5 18.5h-160v128h160q27 0 45.5 18.5t18.5 45.5t-18.5 45.5t-45.5 18.5h-320v-384z" />
    <glyph glyph-name="c" unicode="c" horiz-adv-x="960" 
d="M384 128h448v-128h-448q-133 0 -226.5 93.5t-93.5 226.5t93.5 226.5t226.5 93.5h512l-64 -128h-448q-80 0 -136 -56t-56 -136t56 -136t136 -56z" />
    <glyph glyph-name="d" unicode="d" horiz-adv-x="896" 
d="M512 0h-448v640h448q133 0 226.5 -93.5t93.5 -226.5t-93.5 -226.5t-226.5 -93.5zM192 128h320q80 0 136 56t56 136t-56 136t-136 56h-320v-384z" />
    <glyph glyph-name="e" unicode="e" horiz-adv-x="1152" 
d="M1088 256h-736v128h736v-128zM704 640v-128h-512v-384h512v-128h-640v640h640z" />
    <glyph glyph-name="f" unicode="f" 
d="M704 256h-352v128h352v-128zM64 640h640v-128h-512v-768h-128v896z" />
    <glyph glyph-name="g" unicode="g" horiz-adv-x="1152" 
d="M384 640h512l-64 -128h-448q-80 0 -136 -56t-56 -136t56 -136t136 -56h327l-71 128h-256v128h320l384 -704h-128l-178 320h-398q-133 0 -226.5 93.5t-93.5 226.5t93.5 226.5t226.5 93.5z" />
    <glyph glyph-name="h" unicode="h" 
d="M192 256v-256h-128v640h128v-256h384v256h128v-640h-128v256h-384z" />
    <glyph glyph-name="i" unicode="i" horiz-adv-x="256" 
d="M192 0h-128v640h128v-640z" />
    <glyph glyph-name="j" unicode="j" horiz-adv-x="512" 
d="M320 640h128v-768q0 -80 -56 -136t-136 -56t-136 56t-56 136h128q0 -27 18.5 -45.5t45.5 -18.5t45.5 18.5t18.5 45.5v768z" />
    <glyph glyph-name="k" unicode="k" 
d="M192 229v-229h-128v640h128v-229l320 229h192l-448 -320l448 -320h-192z" />
    <glyph glyph-name="l" unicode="l" 
d="M192 128h512v-128h-640v640h128v-512z" />
    <glyph glyph-name="m" unicode="m" horiz-adv-x="896" 
d="M192 384v-640h-128v896h128l256 -480l256 480h128v-640h-128v384l-192 -384h-128z" />
    <glyph glyph-name="n" unicode="n" 
d="M192 448v-704h-128v896h128l384 -448v768h128v-960h-128z" />
    <glyph glyph-name="o" unicode="o" 
d="M384 0q-133 0 -226.5 93.5t-93.5 226.5t93.5 226.5t226.5 93.5t226.5 -93.5t93.5 -226.5t-93.5 -226.5t-226.5 -93.5zM384 128q80 0 136 56t56 136t-56 136t-136 56t-136 -56t-56 -136t56 -136t136 -56z" />
    <glyph glyph-name="p" unicode="p" 
d="M192 -256h-128v896h448q80 0 136 -56t56 -136t-56 -136t-136 -56h-160v128h160q27 0 45.5 18.5t18.5 45.5t-18.5 45.5t-45.5 18.5h-320v-768z" />
    <glyph glyph-name="q" unicode="q" horiz-adv-x="832" 
d="M425 132l-105 188h128l74 -134q54 56 54 134q0 80 -56 136t-136 56t-136 -56t-56 -136t56 -136t136 -56q21 0 41 4zM586 71l182 -327h-128l-151 272q-49 -16 -105 -16q-133 0 -226.5 93.5t-93.5 226.5t93.5 226.5t226.5 93.5t226.5 -93.5t93.5 -226.5t-93 -226
q-12 -12 -25 -23z" />
    <glyph glyph-name="r" unicode="r" horiz-adv-x="832" 
d="M192 0h-128v640h448q80 0 136 -56t56 -136t-56 -136t-136 -56h-28l284 -512h-128l-352 640h224q27 0 45.5 18.5t18.5 45.5t-18.5 45.5t-45.5 18.5h-320v-512z" />
    <glyph glyph-name="s" unicode="s" horiz-adv-x="1088" 
d="M832 0h-768v128h768q27 0 45.5 18.5t18.5 45.5t-18.5 45.5t-45.5 18.5h-256q-80 0 -136 56t-56 136t56 136t136 56h384v-128h-384q-27 0 -45.5 -18.5t-18.5 -45.5t18.5 -45.5t45.5 -18.5h256q80 0 136 -56t56 -136t-56 -136t-136 -56z" />
    <glyph glyph-name="t" unicode="t" 
d="M448 512v-768h-128v768h-256v128h640v-128h-256z" />
    <glyph glyph-name="u" unicode="u" 
d="M64 320v320h128v-320q0 -80 56 -136t136 -56t136 56t56 136v640h128v-640q0 -133 -93.5 -226.5t-226.5 -93.5t-226.5 93.5t-93.5 226.5z" />
    <glyph glyph-name="v" unicode="v" 
d="M64 640h144l176 -368l176 368h144l-320 -672z" />
    <glyph glyph-name="w" unicode="w" horiz-adv-x="1152" 
d="M576 371l-192 -403l-320 672h144l176 -368l120 251l72 149l72 -149l120 -251l176 368h144l-320 -672z" />
    <glyph glyph-name="x" unicode="x" 
d="M304 320l-240 320h160l160 -213l160 213h160l-240 -320l240 -320h-160l-160 213l-160 -213h-160z" />
    <glyph glyph-name="y" unicode="y" 
d="M320 300l-256 340h160l160 -213l160 213h160l-256 -339v-557h-128v556z" />
    <glyph glyph-name="z" unicode="z" horiz-adv-x="1024" 
d="M346 512h-282v128h480l-282 -512h698v-128h-896z" />
    <glyph glyph-name="braceleft" unicode="{" horiz-adv-x="704" 
d="M0 0l320 672l320 -672h-640zM435 128l-115 240l-115 -240h230z" />
    <glyph glyph-name="bar" unicode="|" horiz-adv-x="256" 
d="M192 -128h-128v896h128v-896z" />
    <glyph glyph-name="braceright" unicode="}" 
d="M576 512h-384v-384h384v384zM704 640v-640h-640v640h640z" />
    <glyph glyph-name="asciitilde" unicode="~" 
d="M704 256h-640v128h640v-128z" />
    <glyph glyph-name="cent" unicode="&#xa2;" horiz-adv-x="640" 
d="M448 0v-128h-128v134q-92 17 -162 88q-94 93 -94 226t94 227q70 70 162 87v134h128v-128h128v-128h-192q-80 0 -136 -56t-56 -136t56 -136t136 -56h192v-128h-128z" />
    <glyph glyph-name="sterling" unicode="&#xa3;" horiz-adv-x="1024" 
d="M960 128v-128h-768v256h-128v128h134q17 92 88 163q93 93 226 93h448v-128h-448q-80 0 -136 -56q-32 -32 -46 -72h374v-128h-384v-128h640z" />
    <glyph glyph-name="yen" unicode="&#xa5;" 
d="M320 300l-256 340h160l160 -213l160 213h160l-256 -339v-45h128v-128h-128v-384h-128v384h-128v128h128v44z" />
    <glyph glyph-name="divide" unicode="&#xf7;" 
d="M704 256h-640v128h640v-128zM384 0q-33 0 -56.5 23.5t-23.5 56.5t23.5 56.5t56.5 23.5t56.5 -23.5t23.5 -56.5t-23.5 -56.5t-56.5 -23.5zM384 480q-33 0 -56.5 23.5t-23.5 56.5t23.5 56.5t56.5 23.5t56.5 -23.5t23.5 -56.5t-23.5 -56.5t-56.5 -23.5z" />
    <glyph glyph-name="quoteleft" unicode="&#x2018;" horiz-adv-x="256" 
d="M192 512h-128v256h128v-256z" />
    <glyph glyph-name="quoteright" unicode="&#x2019;" horiz-adv-x="256" 
d="M192 512h-128v256h128v-256z" />
    <glyph glyph-name="quotedblleft" unicode="&#x201c;" horiz-adv-x="512" 
d="M192 512h-128v256h128v-256zM448 512h-128v256h128v-256z" />
    <glyph glyph-name="quotedblright" unicode="&#x201d;" horiz-adv-x="512" 
d="M192 512h-128v256h128v-256zM448 512h-128v256h128v-256z" />
    <glyph glyph-name="Euro" unicode="&#x20ac;" horiz-adv-x="1024" 
d="M512 128h448v-128h-448q-133 0 -226 94q-71 70 -88 162h-134v128h134q17 92 88 163q93 93 226 93h448v-128h-448q-80 0 -136 -56q-32 -32 -46 -72h470v-128h-470q14 -40 46 -72q56 -56 136 -56z" />
    <glyph glyph-name="_1" horiz-adv-x="320" 
 />
    </font>
</defs>
</svg>
