<svg width="64" height="64" viewBox="0 0 64 64" fill="none" xmlns="http://www.w3.org/2000/svg">
<path d="M7.92554 48.6974C7.92554 43.4079 11.769 38.9023 16.9925 38.0687L17.463 37.9936C21.6456 37.3261 25.9077 37.3261 30.0903 37.9936L30.5608 38.0687C35.7842 38.9023 39.6277 43.4079 39.6277 48.6974C39.6277 50.9837 37.7743 52.8371 35.488 52.8371H12.0652C9.77894 52.8371 7.92554 50.9837 7.92554 48.6974Z" stroke="white" stroke-width="3.96277"/>
<path d="M33.0231 19.814C33.0231 24.9207 28.8833 29.0604 23.7766 29.0604C18.6699 29.0604 14.5302 24.9207 14.5302 19.814C14.5302 14.7073 18.6699 10.5675 23.7766 10.5675C28.8833 10.5675 33.0231 14.7073 33.0231 19.814Z" stroke="white" stroke-width="3.96277"/>
<path d="M39.6277 29.0604C44.7344 29.0604 48.8742 24.9207 48.8742 19.814C48.8742 14.7073 44.7344 10.5675 39.6277 10.5675M45.9414 52.8371H51.3391C53.6254 52.8371 55.4788 50.9837 55.4788 48.6974C55.4788 43.4079 51.6353 38.9023 46.4119 38.0687V38.0687C46.0987 38.0187 45.7815 37.9936 45.4643 37.9936C44.6196 37.9936 44.3572 37.9936 42.9067 37.9936" stroke="white" stroke-width="3.96277" stroke-linecap="round"/>
</svg>
