<svg width="65" height="65" viewBox="0 0 65 65" fill="none" xmlns="http://www.w3.org/2000/svg">
<path d="M6.55074 23.5972C8.42017 16.4286 14.1319 10.9442 21.3043 9.43087L22.6748 9.14169C29.1391 7.7778 35.8118 7.7778 42.276 9.14169L43.6466 9.43086C50.819 10.9442 56.5307 16.4286 58.4001 23.5972C59.9177 29.4164 59.9177 35.5343 58.4001 41.3535C56.5307 48.5221 50.819 54.0065 43.6466 55.5198L42.276 55.809C35.8118 57.1729 29.1391 57.1729 22.6749 55.809L21.3043 55.5198C14.1319 54.0065 8.42017 48.5221 6.55074 41.3535C5.03322 35.5343 5.03322 29.4163 6.55074 23.5972Z" stroke="white" stroke-width="4.05943"/>
<path d="M16.2377 32.4753H21.6502L27.0628 40.5942L37.8879 24.3564L43.3005 32.4753H48.7131" stroke="white" stroke-width="4.05943" stroke-linecap="round" stroke-linejoin="round"/>
</svg>
